# AST/ASF file generated using VICON BodyLanguage
# -----------------------------------------------
:version 1.10
:name VICON
:units
  mass 1.0
  length 0.45
  angle deg
:documentation
   .ast/.asf automatically generated from VICON data using
   VICON BodyBuilder and BodyLanguage model FoxedUp or BRILLIANT.MOD
:root
   order TX TY TZ RX RY RZ
   axis XYZ
   position 0 0 0  
   orientation 0 0 0 
:bonedata
  begin
     id 1 
     name lhipjoint
     direction 0.621036 -0.695554 0.361275 
     length 2.46325 
     axis 0 0 0  XYZ
  end
  begin
     id 2 
     name lfemur
     direction 0.34202 -0.939693 0  
     length 6.54784  
     axis 0 0 20  XYZ
    dof rx ry rz
    limits (-160.0 20.0)
           (-70.0 70.0)
           (-60.0 70.0)
  end
  begin
     id 3 
     name ltibia
     direction 0.34202 -0.939693 0   
     length 7.84737   
     axis 0 0 20   XYZ
    dof rx
    limits (-10.0 170.0)
  end
  begin
     id 4 
     name lfoot
     direction 0.0790693 -0.217241 0.97291   
     length 2.59747   
     axis -90 7.62852e-016 20   XYZ
    dof rx rz
    limits (-45.0 90.0)
           (-70.0 20.0)
  end
  begin
     id 5 
     name ltoes
     direction 1.53572e-011 -4.21898e-011 1   
     length 1.29919   
     axis -90 7.62852e-016 20   XYZ
    dof rx
    limits (-90.0 20.0)
  end
  begin
     id 6 
     name rhipjoint
     direction -0.602353 -0.708375 0.367935   
     length 2.41867  
     axis 0 0 0  XYZ 
  end
  begin
     id 7 
     name rfemur
     direction -0.34202 -0.939693 0   
     length 6.92065   
     axis 0 0 -20   XYZ
    dof rx ry rz
    limits (-160.0 20.0)
           (-70.0 70.0)
           (-70.0 60.0)
  end
  begin
     id 8 
     name rtibia
     direction -0.34202 -0.939693 0   
     length 7.88883   
     axis 0 0 -20   XYZ
    dof rx
    limits (-10.0 170.0)
 end
 begin
     id 9 
     name rfoot
     direction -0.0768692 -0.211196 0.974416   
     length 2.43714  
     axis -90 -7.62852e-016 -20   XYZ
    dof rx rz
    limits (-45.0 90.0)
           (-20.0 70.0)
  end
  begin
     id 10 
     name rtoes
     direction -1.53575e-011 -4.21933e-011 1   
     length 1.22113   
     axis -90 -7.62852e-016 -20   XYZ
    dof rx
    limits (-90.0 20.0)
  end
  begin
     id 11 
     name lowerback
     direction 0.0197937 0.98943 -0.143655   
     length 2.16931   
     axis 0 0 0   XYZ
    dof rx ry rz
    limits (-20.0 45.0)
           (-30.0 30.0)
           (-30.0 30.0)
  end
  begin
     id 12 
     name upperback
     direction -0.00183968 0.999975 0.00684288   
     length 2.17221   
     axis 0 0 0   XYZ
    dof rx ry rz
    limits (-20.0 45.0)
           (-30.0 30.0)
           (-30.0 30.0)
  end
  begin
     id 13 
     name thorax
     direction -0.00950244 0.997208 0.0740685   
     length 2.22549   
     axis 0 0 0   XYZ
    dof rx ry rz
    limits (-20.0 45.0)
           (-30.0 30.0)
           (-30.0 30.0)
  end
  begin
     id 14 
     name lowerneck
     direction 0.0218238 0.996215 0.0841425   
     length 1.77269   
     axis 0 0 0   XYZ
    dof rx ry rz
    limits (-20.0 45.0)
           (-30.0 30.0)
           (-30.0 30.0)
  end
  begin
     id 15 
     name upperneck
     direction -0.00430652 0.994214 -0.107332   
     length 1.76534   
     axis 0 0 0   XYZ
    dof rx ry rz
    limits (-20.0 45.0)
           (-30.0 30.0)
           (-30.0 30.0)
  end
  begin
     id 16
     name head
     direction -0.00328946 0.998959 -0.0454998  
     length 1.82634  
     axis 0 0 0   XYZ
    dof rx ry rz
    limits (-20.0 45.0)
           (-30.0 30.0)
           (-30.0 30.0)
  end
  begin
     id 17 
     name lclavicle
     direction 0.970962 0.239191 0.00450212  
     length 3.84872  
     axis 0 0 0   XYZ
    dof ry rz
    limits (-20.0 10.0)
           (0.0 20.0)
  end
  begin
     id 18 
     name lhumerus
     direction 1 -4.48966e-011 5.74696e-028   
     length 5.22771   
     axis 180 -30 -90   XYZ
    dof rx ry rz
    limits (-60.0 90.0)
           (-90.0 90.0)
           (-90.0 90.0)
  end
  begin
     id 19
     name lradius
     direction 1 -4.4896e-011 4.25109e-027   
     length 3.45251   
     axis 180 -30 -90   XYZ
    dof rx
    limits (-10.0 170.0)
  end
  begin
     id 20
     name lwrist
     direction 1 -4.48971e-011 1.15382e-027   
     length 1.72626   
     axis -5.52449e-016 90 90   XYZ
    dof ry
    limits (-180.0 0.0)
 end
  begin
     id 21 
     name lhand
     direction 1 -4.49034e-011 2.30765e-027   
     length 0.552119   
     axis -1.47248e-015 90 90   XYZ
    dof rx rz
    limits (-90.0 90.0)
           (-45.0 45.0)
  end
  begin
     id 22 
     name lfingers
     direction 1 -4.48951e-011 4.61529e-027   
     length 0.445133   
     axis -2.94495e-015 90 90   XYZ
    dof rx
    limits (0.0 90.0)
  end
  begin
     id 23
     name lthumb
     direction 0.707107 -6.34991e-011 0.707107   
     length 0.639124   
     axis -90 45 2.85299e-015   XYZ
    dof rx rz
    limits (-45.0 45.0)
           (-45.0 45.0)
  end
  begin
     id 24 
     name rclavicle
     direction -0.97424 0.222511 -0.0366699   
     length 3.73439  
     axis 0 0 0   XYZ 
    dof ry rz
    limits (-10.0 20.0)
           (-20.0 0.0)
  end
  begin
     id 25 
     name rhumerus
     direction -1 -4.48956e-011 -4.97258e-028  
     length 5.2398   
     axis 180 30 90   XYZ
    dof rx ry rz
    limits (-90.0 60.0)
           (-90.0 90.0)
           (-90.0 90.0)
  end
  begin
     id 26 
     name rradius
     direction -1 -4.4897e-011 -1.72611e-027   
     length 3.48042   
     axis 180 30 90   XYZ
    dof rx
    limits (-10.0 170.0)
  end
  begin
     id 27 
     name rwrist
     direction -1 -4.48976e-011 1.15382e-027   
     length 1.74021   
     axis -5.52449e-016 -90 -90   XYZ
    dof ry
    limits (-180.0 0.0)
  end
  begin
     id 28
     name rhand
     direction -1 -4.48963e-011 2.30765e-027   
     length 0.618713   
     axis -1.47248e-015 -90 -90   XYZ
    dof rx rz
    limits (-90.0 90.0)
           (-45.0 45.0)
  end
  begin
     id 29
     name rfingers
     direction -1 -4.4888e-011 4.61529e-027   
     length 0.498823   
     axis -2.94495e-015 -90 -90   XYZ
    dof rx
    limits (0.0 90.0)
  end
  begin
     id 30
     name rthumb
     direction -0.707107 -6.34968e-011 0.707107   
     length 0.716213   
     axis -90 -45 -2.85299e-015   XYZ
    dof rx rz
    limits (-45.0 45.0)
           (-45.0 45.0)
  end
:hierarchy
  begin
    root lhipjoint rhipjoint lowerback
    lhipjoint lfemur
    lfemur ltibia
    ltibia lfoot
    lfoot ltoes
    rhipjoint rfemur
    rfemur rtibia
    rtibia rfoot
    rfoot rtoes
    lowerback upperback
    upperback thorax
    thorax lowerneck lclavicle rclavicle
    lowerneck upperneck
    upperneck head
    lclavicle lhumerus
    lhumerus lradius
    lradius lwrist
    lwrist lhand lthumb
    lhand lfingers
    rclavicle rhumerus
    rhumerus rradius
    rradius rwrist
    rwrist rhand rthumb
    rhand rfingers
  end

#!OML:ASF G:\JayActor3\Patient Classification 1\Patient 1\Session 5\male.ASF
:FULLY-SPECIFIED
:DEGREES
158
root -34.4447 16.1874 -5.68423 18.5429 -87.2854 -4.61631
lowerback 33.1775 -1.39174 2.61437
upperback 9.65874 -1.94771 -0.265311
thorax -6.40449 -1.31575 -0.950019
lowerneck 2.61365 0.87797 3.5948
upperneck -27.0829 0.615904 -0.630135
head -8.85175 -0.4422 -0.816694
rclavicle 1.43125e-014 2.14687e-014
rhumerus -23.9944 3.76583 -88.6461
rradius 51.5327
rwrist -7.62883
rhand -20.2054 -11.2847
rfingers 7.12502
rthumb 6.14154 -41.1757
lclavicle 1.43125e-014 2.14687e-014
lhumerus -24.6228 -4.59363 84.3047
lradius 46.0718
lwrist 27.2858
lhand -20.7384 13.5066
lfingers 7.12502
lthumb 5.62692 43.4119
rfemur -60.6876 -4.10164 17.9085
rtibia 73.9305
rfoot 7.99202 -5.20185
rtoes 4.29542
lfemur -56.2633 5.85763 -16.0758
ltibia 65.485
lfoot 10.5771 -11.0455
ltoes -18.6989
159
root -34.4478 16.192 -5.68359 17.3317 -87.2542 -3.51768
lowerback 33.1842 -1.40549 2.60228
upperback 9.68798 -1.97259 -0.27145
thorax -6.37609 -1.32837 -0.941784
lowerneck 2.57765 0.886423 3.58914
upperneck -27.0794 0.623929 -0.631637
head -8.84367 -0.438181 -0.816709
rclavicle 2.06736e-014 2.87244e-014
rhumerus -24.0509 3.71547 -88.6315
rradius 51.5989
rwrist -7.63607
rhand -20.1703 -11.2718
rfingers 7.12502
rthumb 6.17537 -41.1618
lclavicle 2.06736e-014 2.87244e-014
lhumerus -24.6233 -4.54586 84.2993
lradius 46.0974
lwrist 27.2975
lhand -20.7706 13.4654
lfingers 7.12502
lthumb 5.5958 43.3715
rfemur -60.6703 -4.12992 17.8003
rtibia 73.965
rfoot 8.42553 -5.50658
rtoes 4.78756
lfemur -56.4528 5.92069 -16.0481
ltibia 65.6694
lfoot 11.9583 -10.9436
ltoes -18.3416
160
root -34.4505 16.1966 -5.68333 16.2758 -87.2276 -2.57094
lowerback 33.2014 -1.41203 2.58581
upperback 9.71424 -1.98932 -0.274488
thorax -6.35438 -1.33729 -0.930472
lowerneck 2.55472 0.893264 3.58632
upperneck -27.1008 0.630347 -0.630256
head -8.84681 -0.436451 -0.816114
rclavicle 3.69739e-014 2.49475e-014
rhumerus -24.1142 3.66711 -88.6133
rradius 51.67
rwrist -7.64552
rhand -20.12 -11.274
rfingers 7.12502
rthumb 6.22394 -41.1626
lclavicle 3.69739e-014 2.49475e-014
lhumerus -24.6283 -4.49675 84.295
lradius 46.1397
lwrist 27.3049
lhand -20.7985 13.4184
lfingers 7.12502
lthumb 5.56894 43.3252
rfemur -60.6463 -4.15098 17.7172
rtibia 73.995
rfoot 8.78335 -5.78515
rtoes 5.10272
lfemur -56.6472 5.99596 -16.0225
ltibia 65.8452
lfoot 13.3279 -10.7864
ltoes -17.9231
161
root -34.4528 16.2016 -5.68309 15.3876 -87.2066 -1.78923
lowerback 33.2296 -1.4128 2.56991
upperback 9.7354 -1.99792 -0.27532
thorax -6.34194 -1.34245 -0.919578
lowerneck 2.54726 0.897694 3.58488
upperneck -27.1398 0.634899 -0.624384
head -8.85908 -0.436734 -0.814116
rclavicle -2.32578e-014 3.18055e-015
rhumerus -24.1891 3.61983 -88.5915
rradius 51.744
rwrist -7.65841
rhand -20.0723 -11.2748
rfingers 7.12502
rthumb 6.27003 -41.1621
lclavicle -2.32578e-014 3.18055e-015
lhumerus -24.6422 -4.44911 84.2932
lradius 46.1982
lwrist 27.314
lhand -20.8211 13.3716
lfingers 7.12502
lthumb 5.54707 43.279
rfemur -60.6067 -4.16442 17.6573
rtibia 74.0132
rfoot 9.05753 -6.04744
rtoes 5.34299
lfemur -56.8324 6.07304 -15.994
ltibia 66.0005
lfoot 14.6628 -10.5757
ltoes -17.4402
162
root -34.4548 16.2074 -5.68259 14.6499 -87.196 -1.15635
lowerback 33.2718 -1.40712 2.5547
upperback 9.75064 -1.99757 -0.274771
thorax -6.34077 -1.34344 -0.910213
lowerneck 2.5441 0.900434 3.58039
upperneck -27.1815 0.638366 -0.612684
head -8.87322 -0.437852 -0.80953
rclavicle -1.19271e-015 1.73937e-014
rhumerus -24.2721 3.58221 -88.5624
rradius 51.8153
rwrist -7.68106
rhand -20.0304 -11.2832
rfingers 7.12502
rthumb 6.3105 -41.1692
lclavicle -1.19271e-015 1.73937e-014
lhumerus -24.6621 -4.40074 84.2937
lradius 46.2648
lwrist 27.3108
lhand -20.8197 13.3435
lfingers 7.12502
lthumb 5.54841 43.2508
rfemur -60.5494 -4.16416 17.6147
rtibia 74.0152
rfoot 9.25506 -6.30406
rtoes 5.55077
lfemur -56.994 6.14597 -15.9621
ltibia 66.1259
lfoot 15.9323 -10.3339
ltoes -16.98
